<?xml version="1.0" encoding="utf-8"?>
<svg version="1.1" xmlns="http://www.w3.org/2000/svg" x="0px" y="0px" viewBox="0 0 425 72">
    <g>
        <path fill="#000000" d="M0,0 L39.222222,0 L111.222222,72 L72,72 Z"/>
        <path fill="#99D9EA" d="M39.222222,0 L78.444444,0 L150.444444,72 L111.222222,72 Z"/>
        <path fill="#00A2E8" d="M78.444444,0 L117.666666,0 L189.666666,72 L150.444444,72 Z"/>
        <path fill="#B5E61D" d="M117.666666,0 L156.888888,0 L228.888888,72 L189.666666,72 Z"/>
        <path fill="#FFFFFF" d="M156.888888,0 L196.111111,0 L268.111111,72 L228.888888,72 Z"/>
        <path fill="#FFC90E" d="M196.111111,0 L235.333332,0 L307.333332,72 L268.111111,72 Z"/>
        <path fill="#FD6666" d="M235.333332,0 L274.555554,0 L346.555554,72 L307.333332,72 Z"/>
        <path fill="#FFAEC9" d="M274.555554,0 L313.777776,0 L385.777776,72 L346.555554,72 Z"/>
        <path fill="#000000" d="M313.777776,0 L353,0 L425,72 L385.777776,72 Z"/>
    </g>
</svg>
